# xmcd
#
# Track frame offsets:
#	150
#	14432
#	29851
#	44871
#	59539
#	74853
#	88759
#	102634
#	116787
#	131765
#	145043
#	162418
#	178148
#	194024
#	211313
#
# Disc length: 3026 seconds
#
# Revision: 0
# Processed by: cddbd v1.5.2PL0 Copyright (c) Steve Scherf et al.
# Submitted via: dBpowerAMP V4.0
#
DISCID=000bd00f
DTITLE=Dustin Lynch - Where It's At
DYEAR=2014
DGENRE=Country
TTITLE0=Hell Of A Night
TTITLE1=To The Sky
TTITLE2=Halo
TTITLE3=After Party
TTITLE4=Where It's At
TTITLE5=Mind Reader
TTITLE6=Right Where We Want It
TTITLE7=She Wants A Cowboy
TTITLE8=Sing It To Me
TTITLE9=All Night
TTITLE10=Middle Of Nowhere
TTITLE11=World To Me
TTITLE12=What You Wanna Hear
TTITLE13=Your Daddy's Boots
TTITLE14=American Prayer
EXTD=
EXTT0=
EXTT1=
EXTT2=
EXTT3=
EXTT4=
EXTT5=
EXTT6=
EXTT7=
EXTT8=
EXTT9=
EXTT10=
EXTT11=
EXTT12=
EXTT13=
EXTT14=
PLAYORDER=
